<svg width="23" height="22" viewBox="0 0 23 22" fill="none" xmlns="http://www.w3.org/2000/svg">
<path d="M3.41424 12.8236C4.18825 9.09555 7.42386 6.44663 11.0635 6.44663C14.702 6.44663 17.9376 9.09555 18.7127 12.8236C18.7434 12.9716 18.8315 13.1012 18.9575 13.184C19.0835 13.2669 19.2371 13.2961 19.3846 13.2653C19.5321 13.2345 19.6613 13.1462 19.7439 13.0198C19.8265 12.8934 19.8556 12.7393 19.8249 12.5914C18.9431 8.35108 15.2547 5.30829 11.0635 5.30829C6.87229 5.30829 3.18386 8.35108 2.30204 12.5914C2.27134 12.7393 2.30048 12.8934 2.38306 13.0198C2.46564 13.1462 2.59489 13.2345 2.74238 13.2653C2.88987 13.2961 3.04351 13.2669 3.16951 13.184C3.29551 13.1012 3.38354 12.9716 3.41424 12.8236ZM11.0521 8.72331C12.1056 8.72331 13.116 9.14308 13.8609 9.89026C14.6058 10.6374 15.0243 11.6508 15.0243 12.7075C15.0243 13.7642 14.6058 14.7776 13.8609 15.5248C13.116 16.2719 12.1056 16.6917 11.0521 16.6917C9.99866 16.6917 8.98832 16.2719 8.2434 15.5248C7.49847 14.7776 7.07998 13.7642 7.07998 12.7075C7.07998 11.6508 7.49847 10.6374 8.2434 9.89026C8.98832 9.14308 9.99866 8.72331 11.0521 8.72331Z" fill="#6A707C"/>
</svg>
